Coordinates
version=1
nRows=6
nColumns=63
inDegrees=yes

Units are S.I. units (second, meters, Newtons, ...)
If the header above contains a line with 'inDegrees', this indicates whether rotational values are in degrees (yes) or radians (no).

endheader
time	pelvis_tilt	pelvis_list	pelvis_rotation	pelvis_tx	pelvis_ty	pelvis_tz	hip_flexion_r	hip_adduction_r	hip_rotation_r	knee_angle_r	knee_angle_r_beta	ankle_angle_r	subtalar_angle_r	mtp_angle_r	hip_flexion_l	hip_adduction_l	hip_rotation_l	knee_angle_l	knee_angle_l_beta	ankle_angle_l	subtalar_angle_l	mtp_angle_l	L5_S1_Flex_Ext	L5_S1_Lat_Bending	L5_S1_axial_rotation	L4_L5_Flex_Ext	L4_L5_Lat_Bending	L4_L5_axial_rotation	L3_L4_Flex_Ext	L3_L4_Lat_Bending	L3_L4_axial_rotation	L2_L3_Flex_Ext	L2_L3_Lat_Bending	L2_L3_axial_rotation	L1_L2_Flex_Ext	L1_L2_Lat_Bending	L1_L2_axial_rotation	L1_T12_Flex_Ext	L1_T12_Lat_Bending	L1_T12_axial_rotation	Abs_r3	Abs_r2	Abs_r1	Abs_t1	Abs_t2	neck_flexion	neck_bending	neck_rotation	arm_flex_r	arm_add_r	arm_rot_r	elbow_flex_r	pro_sup_r	wrist_flex_r	wrist_dev_r	arm_flex_l	arm_add_l	arm_rot_l	elbow_flex_l	pro_sup_l	wrist_flex_l	wrist_dev_l
0.000000	2.488624	-7.300712	94.279119	0.116102	1.045437	-0.096155	-2.491054	1.226440	5.440537	9.785466	0.170789	35.807734	-13.455732	0.000000	-6.344522	0.176445	10.521554	0.211173	0.003686	35.817943	-5.599228	0.000000	-0.072483	-0.272756	-0.398293	-0.134608	-0.362765	-0.423187	-0.119082	-0.663178	-0.423187	-0.082841	-0.663178	-0.348507	-0.067308	-0.556204	-0.323613	-0.041417	-0.422499	-0.298720	-0.517737	-3.085468	-2.215188	0.000000	0.000000	25.834345	2.762505	4.123970	17.495523	-2.561551	60.273585	33.809217	36.223939	-6.223524	8.323878	16.163414	1.230195	59.207179	29.594621	88.673121	-14.417513	8.396295
0.016949	2.243155	-7.298299	93.116739	0.116391	1.046198	-0.093780	-1.973312	0.742421	5.105764	10.073766	0.175820	37.206641	-10.513780	0.000000	-6.303322	0.604687	9.385517	0.256228	0.004472	35.538881	-5.482171	0.000000	-0.056326	-0.292039	-0.239054	-0.104604	-0.388411	-0.253995	-0.092539	-0.710063	-0.253995	-0.064375	-0.710063	-0.209172	-0.052305	-0.595525	-0.194231	-0.032185	-0.452368	-0.179290	-0.402334	-3.303599	-1.329546	0.000000	0.000000	25.545548	2.919816	4.622594	17.970013	-2.724687	62.989312	33.746125	33.965133	-7.132462	7.682602	15.408686	1.128771	56.255066	30.683079	87.857925	-12.781762	10.081298
0.033898	2.075590	-7.296903	92.250659	0.116412	1.046882	-0.091751	-1.554106	0.380647	4.822492	10.305380	0.179863	38.252118	-8.262487	0.000000	-6.251854	0.920349	8.591383	0.291239	0.005083	35.300845	-5.462205	0.000000	-0.043129	-0.303932	-0.115689	-0.080094	-0.404229	-0.122920	-0.070856	-0.738979	-0.122920	-0.049292	-0.738979	-0.101228	-0.040049	-0.619777	-0.093997	-0.024644	-0.470790	-0.086767	-0.308064	-3.438135	-0.643427	0.000000	0.000000	25.328495	3.044952	5.011129	18.299768	-2.859167	65.165701	33.662931	31.987518	-7.838168	7.112881	14.837226	1.051360	54.073983	31.472031	87.215963	-11.410969	11.299936
0.050847	1.978361	-7.296069	91.653504	0.116197	1.047493	-0.090041	-1.224787	0.129861	4.584808	10.485388	0.183005	38.980476	-6.633717	0.000000	-6.191669	1.133691	8.104408	0.317271	0.005537	35.101432	-5.526165	0.000000	-0.032615	-0.309158	-0.025037	-0.060570	-0.411180	-0.026602	-0.053583	-0.751687	-0.026602	-0.037276	-0.751687	-0.021908	-0.030286	-0.630435	-0.020343	-0.018636	-0.478886	-0.018778	-0.232967	-3.497256	-0.139250	0.000000	0.000000	25.174347	3.139096	5.299255	18.500496	-2.966943	66.853060	33.561809	30.269591	-8.358759	6.610213	14.429177	0.996138	52.577567	31.992991	86.728845	-10.284239	12.103130
0.067797	1.943895	-7.295342	91.297894	0.115780	1.048037	-0.088620	-0.976706	-0.021194	4.386800	10.618867	0.185334	39.428023	-5.559334	0.000000	-6.124317	1.254974	7.889850	0.335386	0.005854	34.938236	-5.660888	0.000000	-0.024511	-0.308441	0.036062	-0.045520	-0.410226	0.038316	-0.040270	-0.749942	0.038316	-0.028014	-0.749942	0.031555	-0.022761	-0.628972	0.029301	-0.014006	-0.477774	0.027047	-0.175082	-3.489142	0.200569	0.000000	0.000000	25.074263	3.203434	5.496652	18.587903	-3.049965	68.101695	33.444930	28.789852	-8.712350	6.170094	14.164680	0.961280	51.679453	32.277475	86.378177	-9.380674	12.541804
0.084746	1.964625	-7.294268	91.156452	0.115193	1.048518	-0.087462	-0.801214	-0.083775	4.222554	10.710894	0.186940	39.631069	-4.971203	0.000000	-6.051349	1.294458	7.912963	0.346650	0.006050	34.808855	-5.853211	0.000000	-0.018543	-0.302503	0.070772	-0.034436	-0.402329	0.075195	-0.030464	-0.735505	0.075195	-0.021193	-0.735505	0.061925	-0.017219	-0.616864	0.057502	-0.010595	-0.468577	0.053079	-0.132449	-3.421972	0.393612	0.000000	0.000000	25.019405	3.239148	5.613001	18.577697	-3.110184	68.961913	33.314465	27.526797	-8.917060	5.788023	14.023880	0.944962	51.293278	32.356997	86.145569	-8.679379	12.666880
